<?xml version="1.0" encoding="UTF-8"?>
<svg width="28px" height="26px" viewBox="0 0 28 26" version="1.1" xmlns="http://www.w3.org/2000/svg" xmlns:xlink="http://www.w3.org/1999/xlink">
    <!-- Generator: Sketch 60.1 (88133) - https://sketch.com -->
    <title>客户端 (1)</title>
    <desc>Created with Sketch.</desc>
    <g id="页面-1" stroke="none" stroke-width="1" fill="none" fill-rule="evenodd">
        <g id="Problem-拓扑图标" transform="translate(-1508.000000, -78.000000)">
            <g id="客户端-(1)" transform="translate(1506.000000, 75.000000)">
                <rect id="矩形" fill="#C1E5EF" opacity="0" x="0" y="0" width="32" height="32"></rect>
                <path d="M2,5.2913913 L2,22.195913 C2,23.358 3.16900001,24.4714783 4.33333333,24.4714783 L10.1713333,24.4714783 C10.7756667,24.4714783 11.345,24.9688696 11.3426667,25.6053043 C11.3331423,26.2320381 10.8077174,26.7361198 10.1608333,26.7391304 L9.02333335,26.7391304 C7.46233334,26.7391304 7.46233334,29 9.007,29 L23.0081667,29 C24.5575,29 24.5575,26.7391304 23.0011667,26.7391304 L21.8298333,26.7391304 C21.2301667,26.7391304 20.6678333,26.2281739 20.6678333,25.6166087 C20.6678333,25.0061739 21.25,24.4714783 21.8438333,24.4714783 L27.6713333,24.4714783 C28.8438333,24.4714783 30,23.3704348 30,22.2241739 L30,5.28234782 C30,4.14173914 28.8216667,3 27.6631667,3 L4.3345,3 C3.14683334,3 2,4.14626086 2,5.2913913 Z M26.5105,22.1947826 L5.51399999,22.1947826 C4.83733332,22.1947826 4.30766667,21.6781739 4.30766667,21.103913 C4.30766667,20.5307826 4.25749999,7.0786087 4.30766667,6.40373914 C4.35900001,5.72773914 4.89333333,5.25408696 5.50350001,5.25408696 L26.493,5.25408696 C27.0763333,5.25408696 27.683,5.8532174 27.683,6.39808696 L27.683,21.0993913 C27.683,21.7041739 27.1043333,22.1947826 26.5105,22.1947826 Z" id="形状" fill="#E86452" fill-rule="nonzero"></path>
            </g>
        </g>
    </g>
</svg>